<svg width="205" height="30" viewBox="0 0 205 30" fill="none" xmlns="http://www.w3.org/2000/svg">
<path d="M0.744 14.36C0.744 13.32 0.928 12.304 1.296 11.312C1.68 10.304 2.232 9.392 2.952 8.576C3.672 7.744 4.552 7.088 5.592 6.608C6.632 6.112 7.816 5.864 9.144 5.864C10.712 5.864 12.064 6.208 13.2 6.896C14.352 7.584 15.208 8.48 15.768 9.584L13.224 11.336C12.936 10.696 12.56 10.192 12.096 9.824C11.632 9.44 11.136 9.176 10.608 9.032C10.08 8.872 9.56 8.792 9.048 8.792C8.216 8.792 7.488 8.96 6.864 9.296C6.256 9.632 5.744 10.072 5.328 10.616C4.912 11.16 4.6 11.768 4.392 12.44C4.2 13.112 4.104 13.784 4.104 14.456C4.104 15.208 4.224 15.936 4.464 16.64C4.704 17.328 5.04 17.944 5.472 18.488C5.92 19.016 6.448 19.44 7.056 19.76C7.68 20.064 8.36 20.216 9.096 20.216C9.624 20.216 10.16 20.128 10.704 19.952C11.248 19.776 11.752 19.496 12.216 19.112C12.68 18.728 13.04 18.232 13.296 17.624L16.008 19.184C15.672 20.032 15.12 20.752 14.352 21.344C13.6 21.936 12.752 22.384 11.808 22.688C10.864 22.992 9.928 23.144 9 23.144C7.784 23.144 6.672 22.896 5.664 22.4C4.656 21.888 3.784 21.216 3.048 20.384C2.328 19.536 1.76 18.592 1.344 17.552C0.944 16.496 0.744 15.432 0.744 14.36ZM25.4051 13.208C24.4291 13.208 23.5571 13.4 22.7891 13.784C22.0211 14.152 21.4691 14.688 21.1331 15.392V23H17.9171V10.424H20.8691V13.112C21.3171 12.248 21.8851 11.568 22.5731 11.072C23.2611 10.576 23.9891 10.304 24.7571 10.256C24.9331 10.256 25.0691 10.256 25.1651 10.256C25.2611 10.256 25.3411 10.264 25.4051 10.28V13.208ZM27.4624 25.448C27.7504 25.512 28.0144 25.568 28.2544 25.616C28.5104 25.664 28.7264 25.688 28.9024 25.688C29.2064 25.688 29.4544 25.608 29.6464 25.448C29.8544 25.304 30.0544 25.032 30.2464 24.632C30.4384 24.248 30.6384 23.704 30.8464 23L25.8784 10.424H29.2144L32.5984 19.712L35.5744 10.424H38.6464L33.3664 25.496C33.1744 26.056 32.8784 26.56 32.4784 27.008C32.0944 27.472 31.6064 27.832 31.0144 28.088C30.4384 28.36 29.7904 28.496 29.0704 28.496C28.8144 28.496 28.5584 28.472 28.3024 28.424C28.0464 28.392 27.7664 28.328 27.4624 28.232V25.448ZM47.9297 23.24C46.9537 23.24 46.0897 23.024 45.3377 22.592C44.6017 22.144 44.0257 21.544 43.6097 20.792V28.112H40.3937V10.424H43.2017V12.584C43.6817 11.848 44.2897 11.272 45.0257 10.856C45.7617 10.424 46.6017 10.208 47.5457 10.208C48.3937 10.208 49.1697 10.376 49.8737 10.712C50.5937 11.048 51.2177 11.52 51.7457 12.128C52.2737 12.72 52.6817 13.408 52.9697 14.192C53.2737 14.96 53.4257 15.792 53.4257 16.688C53.4257 17.904 53.1857 19.008 52.7057 20C52.2417 20.992 51.5937 21.784 50.7617 22.376C49.9457 22.952 49.0017 23.24 47.9297 23.24ZM46.8497 20.504C47.3457 20.504 47.7937 20.4 48.1937 20.192C48.5937 19.984 48.9377 19.704 49.2257 19.352C49.5297 18.984 49.7537 18.576 49.8977 18.128C50.0577 17.664 50.1377 17.184 50.1377 16.688C50.1377 16.16 50.0497 15.672 49.8737 15.224C49.7137 14.776 49.4737 14.384 49.1537 14.048C48.8337 13.696 48.4577 13.424 48.0257 13.232C47.6097 13.04 47.1537 12.944 46.6577 12.944C46.3537 12.944 46.0417 13 45.7217 13.112C45.4177 13.208 45.1217 13.352 44.8337 13.544C44.5457 13.736 44.2897 13.96 44.0657 14.216C43.8577 14.472 43.7057 14.752 43.6097 15.056V18.008C43.8017 18.472 44.0577 18.896 44.3777 19.28C44.7137 19.664 45.0977 19.968 45.5297 20.192C45.9617 20.4 46.4017 20.504 46.8497 20.504ZM62.9766 22.352C62.7046 22.464 62.3766 22.592 61.9926 22.736C61.6086 22.88 61.1926 22.992 60.7446 23.072C60.3126 23.168 59.8726 23.216 59.4246 23.216C58.8326 23.216 58.2886 23.112 57.7926 22.904C57.2966 22.696 56.8966 22.368 56.5926 21.92C56.3046 21.456 56.1606 20.856 56.1606 20.12V12.896H54.5046V10.424H56.1606V6.344H59.3766V10.424H62.0166V12.896H59.3766V19.04C59.3926 19.472 59.5126 19.784 59.7366 19.976C59.9606 20.168 60.2406 20.264 60.5766 20.264C60.9126 20.264 61.2406 20.208 61.5606 20.096C61.8806 19.984 62.1366 19.888 62.3286 19.808L62.9766 22.352ZM70.3189 23.24C69.2949 23.24 68.3749 23.072 67.5589 22.736C66.7429 22.384 66.0469 21.904 65.4709 21.296C64.9109 20.688 64.4789 19.992 64.1749 19.208C63.8709 18.424 63.7189 17.6 63.7189 16.736C63.7189 15.856 63.8709 15.024 64.1749 14.24C64.4789 13.456 64.9109 12.76 65.4709 12.152C66.0469 11.544 66.7429 11.072 67.5589 10.736C68.3749 10.384 69.2949 10.208 70.3189 10.208C71.3429 10.208 72.2549 10.384 73.0549 10.736C73.8709 11.072 74.5669 11.544 75.1429 12.152C75.7189 12.76 76.1509 13.456 76.4389 14.24C76.7429 15.024 76.8949 15.856 76.8949 16.736C76.8949 17.6 76.7429 18.424 76.4389 19.208C76.1509 19.992 75.7189 20.688 75.1429 21.296C74.5829 21.904 73.8949 22.384 73.0789 22.736C72.2629 23.072 71.3429 23.24 70.3189 23.24ZM67.0309 16.736C67.0309 17.472 67.1749 18.128 67.4629 18.704C67.7509 19.264 68.1429 19.704 68.6389 20.024C69.1349 20.344 69.6949 20.504 70.3189 20.504C70.9269 20.504 71.4789 20.344 71.9749 20.024C72.4709 19.688 72.8629 19.24 73.1509 18.68C73.4549 18.104 73.6069 17.448 73.6069 16.712C73.6069 15.992 73.4549 15.344 73.1509 14.768C72.8629 14.192 72.4709 13.744 71.9749 13.424C71.4789 13.104 70.9269 12.944 70.3189 12.944C69.6949 12.944 69.1349 13.112 68.6389 13.448C68.1429 13.768 67.7509 14.216 67.4629 14.792C67.1749 15.352 67.0309 16 67.0309 16.736Z" fill="#0D3E36"/>
<path d="M78.3456 14.36C78.3456 13.32 78.5296 12.304 78.8976 11.312C79.2816 10.304 79.8336 9.392 80.5536 8.576C81.2736 7.744 82.1536 7.088 83.1936 6.608C84.2336 6.112 85.4176 5.864 86.7456 5.864C88.3136 5.864 89.6656 6.208 90.8016 6.896C91.9536 7.584 92.8096 8.48 93.3696 9.584L90.8256 11.336C90.5376 10.696 90.1616 10.192 89.6976 9.824C89.2336 9.44 88.7376 9.176 88.2096 9.032C87.6816 8.872 87.1616 8.792 86.6496 8.792C85.8176 8.792 85.0896 8.96 84.4656 9.296C83.8576 9.632 83.3456 10.072 82.9296 10.616C82.5136 11.16 82.2016 11.768 81.9936 12.44C81.8016 13.112 81.7056 13.784 81.7056 14.456C81.7056 15.208 81.8256 15.936 82.0656 16.64C82.3056 17.328 82.6416 17.944 83.0736 18.488C83.5216 19.016 84.0496 19.44 84.6576 19.76C85.2816 20.064 85.9616 20.216 86.6976 20.216C87.2256 20.216 87.7616 20.128 88.3056 19.952C88.8496 19.776 89.3536 19.496 89.8176 19.112C90.2816 18.728 90.6416 18.232 90.8976 17.624L93.6096 19.184C93.2736 20.032 92.7216 20.752 91.9536 21.344C91.2016 21.936 90.3536 22.384 89.4096 22.688C88.4656 22.992 87.5296 23.144 86.6016 23.144C85.3856 23.144 84.2736 22.896 83.2656 22.4C82.2576 21.888 81.3856 21.216 80.6496 20.384C79.9296 19.536 79.3616 18.592 78.9456 17.552C78.5456 16.496 78.3456 15.432 78.3456 14.36ZM94.6547 19.28C94.6547 18.464 94.8787 17.752 95.3267 17.144C95.7907 16.52 96.4307 16.04 97.2467 15.704C98.0627 15.368 98.9987 15.2 100.055 15.2C100.583 15.2 101.119 15.24 101.663 15.32C102.207 15.4 102.679 15.528 103.079 15.704V15.032C103.079 14.232 102.839 13.616 102.359 13.184C101.895 12.752 101.199 12.536 100.271 12.536C99.5827 12.536 98.9267 12.656 98.3027 12.896C97.6787 13.136 97.0227 13.488 96.3347 13.952L95.3027 11.84C96.1347 11.296 96.9827 10.888 97.8467 10.616C98.7267 10.344 99.6467 10.208 100.607 10.208C102.399 10.208 103.791 10.656 104.783 11.552C105.791 12.448 106.295 13.728 106.295 15.392V19.4C106.295 19.736 106.351 19.976 106.463 20.12C106.591 20.264 106.791 20.352 107.063 20.384V23C106.775 23.048 106.511 23.088 106.271 23.12C106.047 23.152 105.855 23.168 105.695 23.168C105.055 23.168 104.567 23.024 104.231 22.736C103.911 22.448 103.711 22.096 103.631 21.68L103.559 21.032C103.015 21.736 102.335 22.28 101.519 22.664C100.703 23.048 99.8707 23.24 99.0227 23.24C98.1907 23.24 97.4387 23.072 96.7667 22.736C96.1107 22.384 95.5907 21.912 95.2067 21.32C94.8387 20.712 94.6547 20.032 94.6547 19.28ZM102.479 19.928C102.655 19.736 102.799 19.544 102.911 19.352C103.023 19.16 103.079 18.984 103.079 18.824V17.552C102.695 17.392 102.279 17.272 101.831 17.192C101.383 17.096 100.959 17.048 100.559 17.048C99.7267 17.048 99.0387 17.232 98.4947 17.6C97.9667 17.952 97.7027 18.424 97.7027 19.016C97.7027 19.336 97.7907 19.64 97.9667 19.928C98.1427 20.216 98.3987 20.448 98.7347 20.624C99.0707 20.8 99.4707 20.888 99.9347 20.888C100.415 20.888 100.887 20.8 101.351 20.624C101.815 20.432 102.191 20.2 102.479 19.928ZM116.836 23.24C115.86 23.24 114.996 23.024 114.244 22.592C113.508 22.144 112.932 21.544 112.516 20.792V28.112H109.3V10.424H112.108V12.584C112.588 11.848 113.196 11.272 113.932 10.856C114.668 10.424 115.508 10.208 116.452 10.208C117.3 10.208 118.076 10.376 118.78 10.712C119.5 11.048 120.124 11.52 120.652 12.128C121.18 12.72 121.588 13.408 121.876 14.192C122.18 14.96 122.332 15.792 122.332 16.688C122.332 17.904 122.092 19.008 121.612 20C121.148 20.992 120.5 21.784 119.668 22.376C118.852 22.952 117.908 23.24 116.836 23.24ZM115.756 20.504C116.252 20.504 116.7 20.4 117.1 20.192C117.5 19.984 117.844 19.704 118.132 19.352C118.436 18.984 118.66 18.576 118.804 18.128C118.964 17.664 119.044 17.184 119.044 16.688C119.044 16.16 118.956 15.672 118.78 15.224C118.62 14.776 118.38 14.384 118.06 14.048C117.74 13.696 117.364 13.424 116.932 13.232C116.516 13.04 116.06 12.944 115.564 12.944C115.26 12.944 114.948 13 114.628 13.112C114.324 13.208 114.028 13.352 113.74 13.544C113.452 13.736 113.196 13.96 112.972 14.216C112.764 14.472 112.612 14.752 112.516 15.056V18.008C112.708 18.472 112.964 18.896 113.284 19.28C113.62 19.664 114.004 19.968 114.436 20.192C114.868 20.4 115.308 20.504 115.756 20.504Z" fill="#0FAE96"/>
</svg>
