<svg width="120" height="120" viewBox="0 0 120 120" fill="none" xmlns="http://www.w3.org/2000/svg">
<path d="M116.589 102.375L92.561 76.3935L88.719 80.2392L84.3671 75.8874C84.7008 75.4554 85.0341 75.0234 85.3506 74.5826C92.1649 65.0629 95.1618 53.3341 93.7494 41.7123C92.337 30.0906 86.618 19.421 77.7218 11.8106C68.8256 4.20028 57.3991 0.202537 45.6988 0.606916C33.9985 1.0113 22.8752 5.7884 14.5257 13.9948C6.17614 22.2012 1.20739 33.2402 0.600734 44.9317C-0.00592646 56.6232 3.79361 68.1172 11.249 77.1437C18.7043 86.1701 29.2734 92.0729 40.869 93.686C52.4646 95.2992 64.2435 92.5056 73.8796 85.8568C74.5428 85.3994 75.1944 84.9228 75.8346 84.427L80.1797 88.772L75.8654 93.0861L102.375 116.611C103.31 117.546 104.419 118.287 105.64 118.793C106.861 119.299 108.17 119.559 109.492 119.559C110.814 119.559 112.123 119.298 113.344 118.791C114.564 118.285 115.674 117.543 116.608 116.607C117.542 115.672 118.282 114.562 118.787 113.34C119.291 112.118 119.55 110.809 119.548 109.487C119.547 108.166 119.284 106.857 118.777 105.637C118.269 104.416 117.526 103.308 116.589 102.375L116.589 102.375ZM70.2198 70.2293C64.9111 75.5494 57.9215 78.8637 50.4427 79.6073C42.9638 80.3509 35.4585 78.4778 29.2061 74.3073C22.9537 70.1367 18.3411 63.9269 16.1546 56.7362C13.9682 49.5455 14.3431 41.8191 17.2156 34.874C20.088 27.9288 25.2802 22.1948 31.9071 18.6493C38.534 15.1037 46.1854 13.9662 53.5571 15.4305C60.9288 16.8948 67.5646 20.8703 72.3333 26.6794C77.102 32.4885 79.7084 39.7717 79.7084 47.2874C79.7081 55.8894 76.2957 64.14 70.2198 70.2293Z" fill="#808080"/>
</svg>
